<svg width="10" height="10" viewBox="0 0 10 10" fill="none" xmlns="http://www.w3.org/2000/svg">
<path d="M3.69629 0C5.73775 0 7.39341 1.65486 7.39355 3.69629C7.39355 4.53054 7.11655 5.30034 6.65039 5.91895L9.0332 8.30176C9.3107 8.57937 9.31074 9.03003 9.0332 9.30762C8.75561 9.58507 8.30492 9.58509 8.02734 9.30762L5.59082 6.87012C5.03671 7.20157 4.38892 7.39355 3.69629 7.39355C1.65486 7.39341 0 5.73775 0 3.69629C0.000147391 1.65495 1.65495 0.000147392 3.69629 0ZM3.69629 0.995117C2.2046 0.995264 0.995264 2.2046 0.995117 3.69629C0.995117 5.1881 2.20451 6.39731 3.69629 6.39746C5.18819 6.39746 6.39746 5.18819 6.39746 3.69629C6.39731 2.20451 5.1881 0.995117 3.69629 0.995117Z" fill="white"/>
</svg>
