<svg width="32" height="33" viewBox="0 0 32 33" fill="none" xmlns="http://www.w3.org/2000/svg">
<rect width="31.5254" height="32.8136" rx="15.7627" fill="#3E2D28"/>
<path d="M17.4863 22.0625C17.4863 22.5268 17.2905 22.9725 16.9424 23.3008C16.5943 23.629 16.1221 23.8135 15.6299 23.8135C15.1376 23.8135 14.6655 23.629 14.3174 23.3008C13.9692 22.9725 13.7734 22.5268 13.7734 22.0625H17.4863ZM15.7627 9C17.1341 9.00005 18.4492 9.49698 19.4189 10.3809C20.3539 11.2331 20.8931 12.3778 20.9307 13.5791H20.9336V18.1572L22.5254 21.3896H9L10.5908 18.1572V13.5791H10.5947C10.6322 12.3779 11.1707 11.233 12.1055 10.3809C13.0753 9.49694 14.3912 9 15.7627 9Z" fill="white"/>
</svg>
