<svg width="13" height="16" viewBox="0 0 13 16" fill="none" xmlns="http://www.w3.org/2000/svg">
<path d="M7.91895 14.4824C7.9076 14.8812 7.71151 15.2622 7.36523 15.5449C7.0084 15.8362 6.52417 16 6.01953 16C5.51485 16 5.03069 15.8362 4.67383 15.5449C4.33682 15.2698 4.14105 14.9017 4.12012 14.5146C5.02689 14.9443 6.46318 15.2435 7.91895 14.4824ZM7.92188 14.2158C6.45082 15.0413 4.98473 14.6959 4.11621 14.2529V13.7363C5.02346 14.1673 6.46292 14.4675 7.92188 13.7031V14.2158ZM7.92188 13.4385C6.45058 14.2642 4.98475 13.9187 4.11621 13.4756V13.0439C5.03443 13.471 6.46666 13.7617 7.92188 13.0166V13.4385ZM6.01953 0C9.34391 6.15899e-05 12.0391 2.69514 12.0391 6.01953C12.039 8.6788 10.3135 10.933 7.92188 11.7295V12.5732C6.446 13.4216 4.96952 13.059 4.11621 12.6123V11.7295C1.72489 10.9328 4.92644e-05 8.67855 0 6.01953C0 2.6951 2.6951 0 6.01953 0ZM5.98145 4.9707C4.65174 4.9707 3.57334 6.04922 3.57324 7.37891L3.5791 7.54688C3.63686 8.38268 4.12166 9.10143 4.81641 9.48633V10.9512H7.14648V9.48633C7.84094 9.10136 8.32506 8.38246 8.38281 7.54688L8.38867 7.37891C8.38858 6.1326 7.44124 5.10705 6.22754 4.9834L5.98145 4.9707ZM5.98145 5.2041C7.18207 5.20457 8.15615 6.17819 8.15625 7.37891C8.15609 8.19754 7.70278 8.91108 7.0332 9.28223L6.91309 9.34863V10.7188H5.04883V9.34863L4.92871 9.28223C4.25894 8.91114 3.8068 8.19768 3.80664 7.37891C3.80674 6.17791 4.78042 5.2041 5.98145 5.2041Z" fill="#7C5A50"/>
</svg>
